<svg width="18.000000" height="18.000000" viewBox="0 0 18 18" fill="none" xmlns="http://www.w3.org/2000/svg" xmlns:xlink="http://www.w3.org/1999/xlink">
	<desc>
			Created with Pixso.
	</desc>
	<defs>
		<clipPath id="clip1_303">
			<rect id="Frame" width="18.000000" height="18.000000" fill="white" fill-opacity="0"/>
		</clipPath>
	</defs>
	<g opacity="0.600000">
		<rect id="Frame" width="18.000000" height="18.000000" fill="#FFFFFF" fill-opacity="0"/>
		<g clip-path="url(#clip1_303)">
			<path id="Vector" d="M15 15C15.3978 15 15.7794 14.8419 16.0607 14.5607C16.342 14.2794 16.5 13.8978 16.5 13.5L16.5 6C16.5 5.60217 16.342 5.22064 16.0607 4.93933C15.7794 4.65802 15.3978 4.5 15 4.5L9.05249 4.5C8.80545 4.49872 8.56253 4.43643 8.34534 4.3187C8.12811 4.20093 7.94339 4.03134 7.8075 3.82501L7.1925 2.92499C7.05661 2.71866 6.87186 2.54907 6.65466 2.4313C6.43747 2.31357 6.19455 2.25128 5.94751 2.25L3 2.25C2.60217 2.25 2.22064 2.40802 1.93933 2.68933C1.65802 2.97064 1.5 3.35217 1.5 3.75L1.5 13.5C1.5 14.325 2.17499 15 3 15L15 15Z" stroke="#FFFFFF" stroke-opacity="1.000000" stroke-width="2.000000" stroke-linejoin="round"/>
		</g>
	</g>
</svg>
