<svg width="179.794678" height="25.376007" viewBox="0 0 179.795 25.376" fill="none" xmlns="http://www.w3.org/2000/svg" xmlns:xlink="http://www.w3.org/1999/xlink">
	<desc>
			Created with Pixso.
	</desc>
	<defs/>
	<path id="Personal Journal" d="M82.6766 19.916Q82.6766 18.772 83.2225 16.718C83.5865 15.3313 84.0979 13.7193 84.7565 11.882Q86.3686 7.48801 87.7725 4.57599C88.7259 2.61734 89.6532 1.09201 90.5546 0C90.7626 0.034668 91.0139 0.121338 91.3085 0.26001C91.6205 0.398651 91.9239 0.554657 92.2186 0.727997C92.5132 0.884003 92.7732 1.04868 92.9985 1.22198C93.2412 1.39532 93.3972 1.534 93.4666 1.638C92.1146 3.23267 90.9272 4.94867 89.9045 6.78601C88.8819 8.62332 87.9459 10.7293 87.0966 13.104C86.3685 15.1493 85.8139 16.9953 85.4326 18.642Q84.8605 21.086 84.8605 22.724L84.8605 23.27C84.8605 23.3393 84.8692 23.4087 84.8865 23.478C84.6439 23.4433 84.4359 23.3827 84.2626 23.296C84.0892 23.2094 83.9766 23.1053 83.9246 22.984C83.8899 22.8973 83.7946 22.7673 83.6385 22.594C83.4825 22.438 83.3439 22.3167 83.2225 22.23C83.0665 22.126 82.9365 21.8573 82.8326 21.424C82.7286 20.9733 82.6766 20.4707 82.6766 19.916ZM169.005 19.916C169.005 19.1533 169.187 18.0873 169.551 16.718C169.915 15.3313 170.426 13.7193 171.085 11.882C172.159 8.95267 173.165 6.51733 174.101 4.57599C175.054 2.61734 175.981 1.09201 176.883 0C177.091 0.034668 177.342 0.121338 177.637 0.26001Q177.82 0.341583 178 0.431152L178.009 0.43573L178.013 0.437531Q178.284 0.573578 178.547 0.727997C178.841 0.884003 179.101 1.04868 179.327 1.22198C179.569 1.39532 179.725 1.534 179.795 1.638C178.443 3.23267 177.255 4.94867 176.233 6.78601C175.21 8.62332 174.274 10.7293 173.425 13.104C172.697 15.1493 172.142 16.9953 171.761 18.642C171.379 20.2713 171.189 21.632 171.189 22.724L171.189 23.27C171.189 23.3393 171.197 23.4087 171.215 23.478C170.972 23.4433 170.764 23.3827 170.591 23.296C170.417 23.2094 170.305 23.1053 170.253 22.984C170.218 22.8973 170.123 22.7673 169.967 22.594C169.811 22.438 169.672 22.3167 169.551 22.23C169.395 22.126 169.265 21.8573 169.161 21.424C169.057 20.9733 169.005 20.4707 169.005 19.916ZM104.896 2.366C105.555 2.366 106.24 2.48734 106.95 2.73001Q108.016 3.09399 108.822 3.66602C108.649 4.54999 108.484 5.34732 108.328 6.05801C108.19 6.76868 108.06 7.41867 107.938 8.008C107.817 8.57999 107.696 9.10867 107.574 9.59399C107.47 10.062 107.366 10.504 107.262 10.92Q106.638 13.26 105.962 15.158C105.529 16.406 105.061 17.5327 104.558 18.538C104.073 19.5433 103.553 20.436 102.998 21.216C102.461 21.996 101.88 22.6807 101.256 23.27C100.65 23.842 100.043 24.31 99.4364 24.674C98.8297 25.038 98.2664 25.272 97.7464 25.376C97.053 25.376 96.4117 25.298 95.8224 25.142C95.2331 24.986 94.7217 24.7693 94.2884 24.492C93.8724 24.232 93.543 23.9113 93.3004 23.53C93.0751 23.166 92.9624 22.7587 92.9624 22.308C92.9624 21.8227 93.0837 21.216 93.3264 20.488C93.569 19.7427 93.9417 18.8673 94.4444 17.862C94.6524 17.8793 94.8951 17.9313 95.1724 18.018C95.4497 18.1047 95.7271 18.2087 96.0044 18.33C96.2817 18.4513 96.5331 18.59 96.7584 18.746C96.9837 18.8847 97.1484 19.0233 97.2524 19.162C96.6978 19.734 96.2471 20.3667 95.9004 21.06C95.5537 21.736 95.3804 22.3253 95.3804 22.828C95.3804 23.1227 95.4324 23.3827 95.5364 23.608C95.6577 23.8507 95.8571 24.0673 96.1344 24.258Q97.7204 23.66 99.2284 22.022C100.234 20.9473 101.126 19.604 101.906 17.992Q102.608 16.562 103.18 14.716C103.562 13.4853 103.882 12.2547 104.142 11.024Q104.558 9.15201 104.766 7.46201C104.922 6.31799 105 5.35599 105 4.57599Q105 4.39401 104.974 4.082Q104.974 3.74399 104.948 3.40601Q104.948 3.04199 104.922 2.75601C104.905 2.56534 104.896 2.43533 104.896 2.366ZM16.952 7.56601C16.952 8.51935 16.7094 9.42932 16.224 10.296C15.756 11.1627 15.1147 11.9253 14.3 12.584Q13.104 13.546 11.466 14.118C10.3914 14.4993 9.24731 14.69 8.034 14.69Q7.38397 14.69 6.99402 14.534C6.75134 14.4127 6.474 14.1873 6.16199 13.858Q4.862 16.692 4.03003 19.084Q3.224 21.45 2.75598 23.686C2.09735 23.53 1.56 23.2527 1.14398 22.854Q0.52002 22.282 0 21.398C0.17334 21.0687 0.381348 20.6353 0.624023 20.098C0.866638 19.5607 1.16132 18.902 1.508 18.122Q2.02802 16.926 2.70398 15.288Q3.40601 13.624 4.34198 11.414C4.61932 10.738 4.862 10.1487 5.07001 9.646C5.27802 9.14334 5.46002 8.67532 5.61603 8.242C5.77197 7.79132 5.91064 7.34933 6.03198 6.91602C6.17065 6.48267 6.30933 6.00601 6.448 5.48599Q5.22601 5.87601 4.18597 6.396Q3.172 6.91602 2.49597 7.48801C2.34003 7.384 2.17535 7.228 2.00201 7.01999Q1.76801 6.70801 1.56 6.34399C1.42133 6.08401 1.29999 5.82401 1.19598 5.564C1.09198 5.30399 1.03131 5.07001 1.01398 4.862Q1.76801 4.34201 2.88599 3.89999C3.63135 3.60535 4.42865 3.354 5.27802 3.146Q6.552 2.80801 7.90399 2.62601Q9.28198 2.444 10.53 2.444Q12.012 2.444 13.208 2.83401Q14.404 3.198 15.236 3.87399Q15.7992 4.3316 16.1837 4.90836L16.1837 4.90842Q16.3672 5.18362 16.51 5.48599Q16.5112 5.48865 16.5125 5.4913Q16.952 6.42523 16.952 7.56601ZM12.324 4.44601C11.6653 4.44601 10.9893 4.49799 10.296 4.60199L10.608 5.07001C10.4347 5.29532 10.218 5.63333 9.95801 6.08401C9.698 6.53467 9.41199 7.08066 9.09998 7.72198Q8.63202 8.65799 8.06 9.828C7.69598 10.608 7.30603 11.4313 6.89001 12.298C8.242 12.298 9.47266 12.1767 10.582 11.934C11.6913 11.674 12.636 11.3273 13.416 10.894C14.2133 10.4433 14.8287 9.92334 15.262 9.33401Q15.7499 8.69592 15.8857 7.99008Q15.938 7.71808 15.938 7.436C15.938 6.53467 15.6346 5.81534 15.028 5.27802C14.4213 4.72333 13.52 4.44601 12.324 4.44601ZM44.9538 11.232C44.9365 11.5613 44.8758 11.908 44.7718 12.272C44.6851 12.6187 44.5724 12.9393 44.4338 13.234C44.2951 13.5113 44.1478 13.7453 43.9918 13.936C43.8358 14.1267 43.6885 14.222 43.5498 14.222C43.3591 14.2047 43.2465 14.0747 43.2118 13.832C43.2118 13.78 43.2291 13.702 43.2638 13.598C43.3158 13.4767 43.3678 13.3467 43.4198 13.208C43.4718 13.0693 43.5151 12.9307 43.5498 12.792C43.6018 12.6533 43.6278 12.532 43.6278 12.428C43.6278 12.1853 43.5671 11.986 43.4458 11.83C43.3418 11.6567 43.1945 11.57 43.0038 11.57C42.3105 11.57 41.7818 12.0033 41.4178 12.87C41.0538 13.7367 40.8718 15.0107 40.8718 16.692Q40.8718 16.952 40.8978 17.004C41.2618 16.9867 41.5825 16.978 41.8598 16.978C42.1545 16.9607 42.4405 16.952 42.7178 16.952C42.7351 16.9867 42.7438 17.056 42.7438 17.16C42.7438 17.316 42.7091 17.4287 42.6398 17.498C42.2411 17.5847 41.9205 17.6627 41.6778 17.732C41.4525 17.784 41.2791 17.836 41.1578 17.888C41.0364 17.94 40.9584 18.0007 40.9238 18.07C40.9064 18.122 40.8978 18.2 40.8978 18.304L40.8978 18.72C40.9151 18.8587 40.9238 19.032 40.9238 19.24C40.9238 20.696 40.5251 21.866 39.7278 22.75Q39.5147 22.9915 39.2706 23.1959L39.2704 23.1961Q38.1741 24.1139 36.4518 24.284C36.2091 24.2667 35.9578 24.1973 35.6978 24.076C35.4378 23.9547 35.1865 23.7987 34.9438 23.608C34.7184 23.4173 34.5191 23.2007 34.3458 22.958C34.1725 22.7327 34.0511 22.4987 33.9818 22.256C33.9818 21.5973 34.1205 20.9733 34.3978 20.384C34.6751 19.7773 35.0478 19.2487 35.5158 18.798C36.0012 18.33 36.5645 17.9573 37.2058 17.68C37.8644 17.3853 38.5751 17.212 39.3378 17.16C39.3378 16.7267 39.2945 16.302 39.2078 15.886C39.1212 15.47 39.0258 15.0713 38.9218 14.69C38.8351 14.2913 38.7485 13.91 38.6618 13.546C38.5751 13.1647 38.5318 12.792 38.5318 12.428Q38.5318 12.2726 38.5458 12.1186Q38.5951 11.5764 38.8178 11.05C39.0085 10.582 39.2598 10.1573 39.5718 9.776C39.8838 9.37732 40.2478 9.03934 40.6638 8.76199C41.0798 8.48468 41.5131 8.29401 41.9638 8.19C42.1545 8.242 42.4058 8.39801 42.7178 8.65799C43.0471 8.90067 43.3678 9.17801 43.6798 9.48999C43.9918 9.802 44.2691 10.1227 44.5118 10.452C44.7545 10.764 44.9018 11.024 44.9538 11.232ZM60.6606 8.97Q61.3367 9.17801 61.9346 9.90601C62.3333 10.374 62.628 10.894 62.8187 11.466C62.628 11.934 62.3333 12.4973 61.9346 13.156Q61.3367 14.144 60.7386 15.184C60.34 15.86 59.976 16.51 59.6467 17.134C59.3347 17.7407 59.1526 18.2433 59.1006 18.642C59.378 18.3474 59.6813 18.0093 60.0106 17.628C60.3573 17.2293 60.6866 16.8393 60.9987 16.458C61.3279 16.0593 61.6313 15.704 61.9086 15.392C62.186 15.0627 62.4026 14.82 62.5587 14.664C62.888 14.3173 63.278 13.9187 63.7286 13.468C64.1793 13 64.6473 12.5667 65.1326 12.168C65.6353 11.752 66.138 11.4053 66.6406 11.128C67.1433 10.8333 67.6027 10.686 68.0186 10.686C68.4693 10.686 68.842 10.842 69.1367 11.154C69.4487 11.4487 69.6913 11.7607 69.8646 12.09C69.8646 12.1247 69.7953 12.1767 69.6567 12.246C69.5353 12.298 69.3533 12.4627 69.1107 12.74C68.868 13.052 68.5906 13.4853 68.2786 14.04C67.9839 14.5773 67.6893 15.1667 67.3947 15.808C67.1173 16.432 66.8833 17.0733 66.6926 17.732C66.502 18.3907 66.4067 18.9887 66.4067 19.526C66.4067 19.9593 66.4586 20.2367 66.5626 20.358C66.684 20.4793 66.8486 20.54 67.0566 20.54C67.2473 20.54 67.4467 20.4967 67.6547 20.41C67.8626 20.3233 68.0273 20.28 68.1486 20.28C68.218 20.3147 68.27 20.3927 68.3046 20.514Q68.3826 20.67 68.3826 20.8C68.244 20.9213 68.0793 21.0427 67.8886 21.164Q67.6027 21.346 67.2906 21.502C67.0826 21.606 66.8746 21.6927 66.6666 21.762Q66.3807 21.866 66.1467 21.866C65.644 21.866 65.228 21.788 64.8986 21.632C64.5867 21.4933 64.3353 21.3027 64.1447 21.06C63.9713 20.8173 63.85 20.5313 63.7806 20.202C63.7113 19.8553 63.6766 19.4913 63.6766 19.11C63.6766 18.902 63.694 18.668 63.7286 18.408C63.7633 18.148 63.8326 17.8447 63.9366 17.498C64.0406 17.134 64.188 16.7093 64.3787 16.224C64.5693 15.7213 64.812 15.1233 65.1066 14.43C65.072 14.43 64.838 14.5513 64.4047 14.794C63.9713 15.0367 63.5033 15.4093 63.0006 15.912C62.186 16.692 61.4493 17.4633 60.7906 18.226C60.1493 18.9887 59.4907 19.838 58.8146 20.774C58.4333 21.3113 58.0953 21.762 57.8007 22.126C57.5233 22.5073 57.2806 22.7587 57.0726 22.88C56.7086 22.672 56.44 22.3773 56.2667 21.996C56.0933 21.632 55.9633 21.2507 55.8766 20.852C55.8766 20.5227 55.92 20.1067 56.0067 19.604C56.1107 19.1013 56.2407 18.5467 56.3967 17.94Q56.6566 17.004 57.0206 15.99C57.2633 15.314 57.532 14.638 57.8267 13.962C58.4853 12.4367 59.0833 11.2407 59.6207 10.374C60.1753 9.50732 60.522 9.03934 60.6606 8.97ZM146.989 8.97Q147.665 9.17801 148.263 9.90601C148.661 10.374 148.956 10.894 149.147 11.466C148.956 11.934 148.661 12.4973 148.263 13.156Q147.665 14.144 147.067 15.184C146.668 15.86 146.304 16.51 145.975 17.134C145.663 17.7407 145.481 18.2433 145.429 18.642C145.706 18.3474 146.009 18.0093 146.339 17.628C146.685 17.2293 147.015 16.8393 147.327 16.458C147.656 16.0593 147.959 15.704 148.237 15.392C148.514 15.0627 148.731 14.82 148.887 14.664C149.216 14.3173 149.606 13.9187 150.057 13.468C150.507 13 150.975 12.5667 151.461 12.168Q152.215 11.544 152.969 11.128C153.471 10.8333 153.931 10.686 154.347 10.686C154.797 10.686 155.17 10.842 155.465 11.154C155.777 11.4487 156.019 11.7607 156.193 12.09C156.193 12.1247 156.123 12.1767 155.985 12.246C155.863 12.298 155.681 12.4627 155.439 12.74C155.196 13.052 154.919 13.4853 154.607 14.04C154.312 14.5773 154.017 15.1667 153.723 15.808C153.445 16.432 153.211 17.0733 153.021 17.732Q152.735 18.72 152.735 19.526C152.735 19.9593 152.787 20.2367 152.891 20.358C153.012 20.4793 153.177 20.54 153.385 20.54C153.575 20.54 153.775 20.4967 153.983 20.41C154.191 20.3233 154.355 20.28 154.477 20.28C154.546 20.3147 154.598 20.3927 154.633 20.514Q154.711 20.67 154.711 20.8C154.572 20.9213 154.407 21.0427 154.217 21.164C154.026 21.2853 153.827 21.398 153.619 21.502C153.411 21.606 153.203 21.6927 152.995 21.762C152.804 21.8313 152.631 21.866 152.475 21.866C151.972 21.866 151.556 21.788 151.227 21.632C150.915 21.4933 150.663 21.3027 150.473 21.06C150.299 20.8173 150.178 20.5313 150.109 20.202C150.039 19.8553 150.005 19.4913 150.005 19.11C150.005 18.902 150.022 18.668 150.057 18.408C150.091 18.148 150.161 17.8447 150.265 17.498C150.369 17.134 150.516 16.7093 150.707 16.224C150.897 15.7213 151.14 15.1233 151.435 14.43C151.4 14.43 151.166 14.5513 150.733 14.794C150.299 15.0367 149.831 15.4093 149.329 15.912C148.514 16.692 147.777 17.4633 147.119 18.226C146.477 18.9887 145.819 19.838 145.143 20.774C144.761 21.3113 144.423 21.762 144.129 22.126C143.851 22.5073 143.609 22.7587 143.401 22.88C143.037 22.672 142.768 22.3773 142.595 21.996C142.421 21.632 142.291 21.2507 142.205 20.852Q142.205 20.358 142.335 19.604C142.439 19.1013 142.569 18.5467 142.725 17.94C142.898 17.316 143.106 16.666 143.349 15.99C143.591 15.314 143.86 14.638 144.155 13.962C144.813 12.4367 145.411 11.2407 145.949 10.374C146.503 9.50732 146.85 9.03934 146.989 8.97ZM25.2797 21.06C25.3664 20.5573 25.5137 19.8987 25.7217 19.084C25.9471 18.252 26.207 17.3767 26.5017 16.458C26.7964 15.522 27.1084 14.586 27.4377 13.65C27.767 12.714 28.0877 11.8733 28.3997 11.128C28.6251 10.5907 28.8244 10.1747 28.9977 9.88C29.1711 9.56799 29.3617 9.30801 29.5697 9.10001C29.8124 9.13467 30.0637 9.19534 30.3237 9.28201C30.5837 9.36865 30.835 9.47266 31.0777 9.59399C31.3204 9.71533 31.537 9.84534 31.7277 9.98401C31.9184 10.1053 32.0657 10.2267 32.1697 10.348Q31.4677 11.18 30.9217 12.246C30.5751 12.9567 30.2197 13.8667 29.8557 14.976C30.7917 14.144 31.6151 13.3467 32.3257 12.584C33.0537 11.8213 33.7297 10.972 34.3537 10.036C34.4577 9.94934 34.6397 9.90601 34.8997 9.90601C35.1424 9.90601 35.3764 9.94934 35.6017 10.036C35.827 10.1053 35.983 10.2093 36.0697 10.348C35.7577 11.18 35.6017 12.0033 35.6017 12.818C35.6017 13.5807 35.7144 14.1527 35.9397 14.534C35.9224 14.638 35.801 14.8373 35.5757 15.132C35.3677 15.4267 35.1337 15.704 34.8737 15.964C34.4057 15.7213 33.9897 15.392 33.6257 14.976C33.2617 14.5427 32.993 14.0747 32.8197 13.572C32.0051 14.144 31.3117 14.7073 30.7397 15.262C30.1677 15.7993 29.6737 16.406 29.2577 17.082C28.8591 17.7407 28.5124 18.5033 28.2177 19.37C27.9404 20.2367 27.6717 21.268 27.4117 22.464C27.2557 22.4467 27.0651 22.386 26.8397 22.282C26.6317 22.1953 26.415 22.0827 26.1897 21.944C25.9817 21.8053 25.7911 21.658 25.6177 21.502C25.4444 21.346 25.3317 21.1987 25.2797 21.06ZM131.666 21.06C131.753 20.5573 131.9 19.8987 132.108 19.084C132.334 18.252 132.594 17.3767 132.888 16.458C133.183 15.522 133.495 14.586 133.824 13.65C134.154 12.714 134.474 11.8733 134.786 11.128C135.012 10.5907 135.211 10.1747 135.384 9.88C135.558 9.56799 135.748 9.30801 135.956 9.10001C136.199 9.13467 136.45 9.19534 136.71 9.28201C136.97 9.36865 137.222 9.47266 137.464 9.59399C137.707 9.71533 137.924 9.84534 138.114 9.98401C138.305 10.1053 138.452 10.2267 138.556 10.348Q137.854 11.18 137.308 12.246Q136.788 13.312 136.242 14.976Q137.646 13.728 138.712 12.584C139.44 11.8213 140.116 10.972 140.74 10.036C140.844 9.94934 141.026 9.90601 141.286 9.90601C141.529 9.90601 141.763 9.94934 141.988 10.036C142.214 10.1053 142.37 10.2093 142.456 10.348C142.144 11.18 141.988 12.0033 141.988 12.818C141.988 13.5807 142.101 14.1527 142.326 14.534C142.309 14.638 142.188 14.8373 141.962 15.132C141.754 15.4267 141.52 15.704 141.26 15.964C140.792 15.7213 140.376 15.392 140.012 14.976C139.648 14.5427 139.38 14.0747 139.206 13.572C138.392 14.144 137.698 14.7073 137.126 15.262C136.554 15.7993 136.06 16.406 135.644 17.082C135.246 17.7407 134.899 18.5033 134.604 19.37C134.327 20.2367 134.058 21.268 133.798 22.464C133.642 22.4467 133.452 22.386 133.226 22.282C133.018 22.1953 132.802 22.0827 132.576 21.944C132.368 21.8053 132.178 21.658 132.004 21.502C131.831 21.346 131.718 21.1987 131.666 21.06ZM126.515 21.008C126.185 20.7307 125.96 20.384 125.839 19.968C125.735 19.552 125.683 19.1967 125.683 18.902Q125.683 18.356 125.813 17.966C125.743 17.966 125.587 18.1047 125.345 18.382C125.102 18.6593 124.833 18.9887 124.539 19.37C124.261 19.7513 123.984 20.124 123.707 20.488C123.429 20.852 123.221 21.1207 123.083 21.294Q122.745 21.658 122.433 21.866C122.242 22.0047 122.086 22.0827 121.965 22.1C121.687 22.0827 121.393 22.022 121.081 21.918C120.786 21.8313 120.5 21.7013 120.223 21.528Q120.145 21.4759 120.07 21.4197Q119.77 21.1951 119.521 20.904C119.33 20.6613 119.2 20.384 119.131 20.072C119.131 19.5867 119.139 19.188 119.157 18.876C119.191 18.564 119.252 18.226 119.339 17.862Q119.573 16.874 120.015 15.626C120.327 14.794 120.682 13.9793 121.081 13.182C121.479 12.3673 121.921 11.6133 122.407 10.92C122.909 10.2093 123.438 9.65466 123.993 9.25601C124.149 9.25601 124.331 9.27335 124.539 9.30801C124.747 9.32535 124.955 9.36865 125.163 9.43799C125.388 9.50732 125.596 9.59399 125.787 9.698C125.995 9.78467 126.168 9.90601 126.307 10.062Q126.073 10.322 125.111 11.804C124.487 12.792 123.785 14.2133 123.005 16.068C122.918 16.2587 122.814 16.536 122.693 16.9C122.571 17.264 122.45 17.6453 122.329 18.044C122.207 18.4427 122.103 18.8327 122.017 19.214Q121.913 19.786 121.913 20.124Q121.913 20.332 121.965 20.436C122.017 20.5053 122.06 20.5573 122.095 20.592C122.355 20.488 122.684 20.202 123.083 19.734C123.481 19.266 124.036 18.5467 124.747 17.576C124.92 17.3333 125.119 17.056 125.345 16.744C125.587 16.432 125.83 16.1027 126.073 15.756C126.315 15.392 126.541 15.0193 126.749 14.638C126.974 14.2567 127.156 13.8753 127.295 13.494C127.364 13.286 127.451 13.0433 127.555 12.766C127.676 12.4713 127.815 12.168 127.971 11.856C128.144 11.544 128.335 11.232 128.543 10.92C128.768 10.5907 129.028 10.2873 129.323 10.01C129.548 10.01 129.791 10.036 130.051 10.088C130.311 10.14 130.553 10.2093 130.779 10.296C131.021 10.3653 131.229 10.452 131.403 10.556C131.576 10.6427 131.706 10.738 131.793 10.842Q131.325 11.986 130.753 13.104Q130.181 14.222 129.687 15.314C129.357 16.0247 129.08 16.7353 128.855 17.446C128.629 18.1567 128.517 18.85 128.517 19.526C128.517 19.89 128.543 20.2107 128.595 20.488C128.664 20.748 128.733 20.9733 128.803 21.164C128.872 21.3373 128.933 21.4847 128.985 21.606Q129.089 21.788 129.089 21.918C129.089 21.9353 129.071 21.9613 129.037 21.996C129.019 22.0133 129.002 22.022 128.985 22.022C128.863 22.022 128.707 21.996 128.517 21.944C128.326 21.892 128.109 21.814 127.867 21.71C127.641 21.6233 127.407 21.5193 127.165 21.398C126.939 21.2767 126.723 21.1467 126.515 21.008ZM48.0401 22.49C47.0521 22.386 46.2634 21.9527 45.6741 21.19C45.0847 20.4273 44.7901 19.4567 44.7901 18.278C44.7901 17.5847 44.8941 16.8653 45.1021 16.12C45.3101 15.3747 45.6047 14.6553 45.9861 13.962C46.3674 13.2513 46.8181 12.584 47.3381 11.96C47.8581 11.336 48.4214 10.7987 49.0281 10.348C49.9814 9.63733 50.8741 9.28201 51.7061 9.28201C52.2607 9.57666 52.8068 10.192 53.3441 11.128L53.5781 11.128Q53.6821 11.102 53.8121 11.102C54.7308 11.102 55.1901 11.9167 55.1901 13.546C55.1901 14.638 55.0081 15.678 54.6441 16.666C54.2974 17.6367 53.8034 18.5207 53.162 19.318C52.5381 20.1153 51.7841 20.7913 50.9001 21.346C50.0334 21.8833 49.0801 22.2647 48.0401 22.49ZM111.034 22.49Q110.221 22.4044 109.587 22.0211Q109.067 21.7061 108.668 21.19C108.079 20.4273 107.784 19.4567 107.784 18.278C107.784 17.5847 107.888 16.8653 108.096 16.12C108.304 15.3747 108.599 14.6553 108.98 13.962C109.362 13.2513 109.812 12.584 110.332 11.96C110.852 11.336 111.416 10.7987 112.022 10.348C112.976 9.63733 113.868 9.28201 114.7 9.28201C115.255 9.57666 115.801 10.192 116.338 11.128L116.572 11.128C116.642 11.1107 116.72 11.102 116.806 11.102C117.725 11.102 118.184 11.9167 118.184 13.546Q118.184 14.844 117.841 16.0441L117.841 16.0451Q117.751 16.3589 117.638 16.666C117.292 17.6367 116.798 18.5207 116.156 19.318C115.532 20.1153 114.778 20.7913 113.894 21.346C113.028 21.8833 112.074 22.2647 111.034 22.49ZM24.7 10.816C24.6307 11.8907 24.44 12.818 24.128 13.598C23.816 14.3607 23.3654 15.0367 22.776 15.626C22.204 16.198 21.502 16.718 20.67 17.186C19.838 17.654 18.8673 18.1047 17.758 18.538C17.758 18.642 17.7493 18.7547 17.732 18.876L17.732 19.214C17.732 19.4393 17.7493 19.6733 17.784 19.916C17.8187 20.1587 17.8793 20.384 17.966 20.592C18.0527 20.8 18.174 20.9733 18.33 21.112C18.486 21.2333 18.6854 21.294 18.928 21.294Q19.0585 21.294 19.1881 21.2832L19.1885 21.2832Q19.7559 21.2359 20.306 20.982C20.7567 20.774 21.1813 20.5227 21.58 20.228C21.996 19.916 22.3773 19.5867 22.724 19.24C23.088 18.876 23.4087 18.5467 23.686 18.252C23.8593 18.408 24.0067 18.5553 24.128 18.694C23.348 19.734 22.49 20.6007 21.554 21.294C20.6353 21.97 19.76 22.4033 18.928 22.594C17.732 22.4553 16.796 22.022 16.12 21.294C15.4613 20.5487 15.132 19.656 15.132 18.616Q15.132 17.55 15.418 16.458Q15.7144 15.3959 16.1985 14.4276Q16.224 14.3767 16.25 14.326C16.614 13.6327 17.03 12.9827 17.498 12.376Q18.226 11.466 19.032 10.79Q19.864 10.114 20.722 9.724C21.3113 9.46399 21.892 9.33401 22.464 9.33401C23.2614 9.43799 24.0067 9.93201 24.7 10.816ZM79.4597 11.076C79.633 11.076 79.8323 11.1107 80.0577 11.18C80.3004 11.232 80.517 11.31 80.7076 11.414C80.8983 11.5007 81.0543 11.596 81.1757 11.7C81.3143 11.804 81.3837 11.8993 81.3837 11.986C81.037 12.714 80.7163 13.4507 80.4217 14.196C80.127 14.924 79.8757 15.626 79.6677 16.302C79.4597 16.978 79.295 17.6107 79.1736 18.2C79.0696 18.7893 79.0176 19.3007 79.0176 19.734C79.0176 20.2193 79.0696 20.6267 79.1736 20.956C79.2776 21.268 79.451 21.4933 79.6937 21.632C79.4857 21.7707 79.217 21.8833 78.8876 21.97C78.5583 22.0567 78.2637 22.1 78.0037 22.1C77.0677 22.1 76.5997 21.4587 76.5997 20.176C76.5997 19.188 76.929 17.836 77.5876 16.12C77.241 16.9173 76.8423 17.6713 76.3917 18.382C75.941 19.0753 75.4816 19.6907 75.0137 20.228C74.5457 20.7653 74.069 21.2073 73.5837 21.554C73.1157 21.8833 72.6823 22.0827 72.2836 22.152C71.6423 22.1173 71.1223 21.814 70.7236 21.242C70.325 20.6527 70.1257 19.9073 70.1257 19.006Q70.1257 17.55 70.7496 15.938C71.1656 14.8633 71.6943 13.8667 72.3356 12.948C72.9943 12.0293 73.705 11.2667 74.4677 10.66C75.2303 10.036 75.967 9.70667 76.6777 9.672Q76.9377 9.75 77.2496 9.98401C77.475 10.14 77.683 10.322 77.8737 10.53C78.0817 10.738 78.255 10.9547 78.3937 11.18C78.5323 11.388 78.6104 11.57 78.6277 11.726C77.9343 11.83 77.215 12.168 76.4697 12.74C75.7416 13.312 75.0743 14.0053 74.4677 14.82C73.8784 15.6173 73.393 16.4753 73.0117 17.394C72.6303 18.3127 72.4396 19.1707 72.4396 19.968C72.4396 20.2973 72.561 20.5053 72.8036 20.592C73.3063 20.488 73.887 20.0633 74.5457 19.318Q75.5336 18.174 76.9377 15.808C77.111 15.496 77.3016 15.1493 77.5096 14.768Q77.8477 14.196 78.1857 13.572C78.411 13.156 78.6277 12.74 78.8356 12.324Q79.1736 11.674 79.4597 11.076ZM165.788 11.076C165.961 11.076 166.16 11.1107 166.386 11.18C166.628 11.232 166.845 11.31 167.036 11.414C167.226 11.5007 167.382 11.596 167.504 11.7C167.642 11.804 167.712 11.8993 167.712 11.986C167.365 12.714 167.044 13.4507 166.75 14.196C166.455 14.924 166.204 15.626 165.996 16.302C165.788 16.978 165.623 17.6107 165.502 18.2C165.398 18.7893 165.346 19.3007 165.346 19.734C165.346 20.2193 165.398 20.6267 165.502 20.956C165.606 21.268 165.779 21.4933 166.022 21.632C165.814 21.7707 165.545 21.8833 165.216 21.97C164.886 22.0567 164.592 22.1 164.332 22.1C163.396 22.1 162.928 21.4587 162.928 20.176Q162.928 18.694 163.916 16.12C163.569 16.9173 163.17 17.6713 162.72 18.382C162.269 19.0753 161.81 19.6907 161.342 20.228C160.874 20.7653 160.397 21.2073 159.912 21.554C159.444 21.8833 159.01 22.0827 158.612 22.152C157.97 22.1173 157.45 21.814 157.052 21.242C156.653 20.6527 156.454 19.9073 156.454 19.006C156.454 18.0353 156.662 17.0127 157.078 15.938C157.494 14.8633 158.022 13.8667 158.664 12.948C159.322 12.0293 160.033 11.2667 160.796 10.66C161.558 10.036 162.295 9.70667 163.006 9.672C163.179 9.724 163.37 9.828 163.578 9.98401C163.803 10.14 164.011 10.322 164.202 10.53C164.41 10.738 164.583 10.9547 164.722 11.18C164.86 11.388 164.938 11.57 164.956 11.726C164.262 11.83 163.543 12.168 162.798 12.74C162.07 13.312 161.402 14.0053 160.796 14.82C160.206 15.6173 159.721 16.4753 159.34 17.394C158.958 18.3127 158.768 19.1707 158.768 19.968C158.768 20.2973 158.889 20.5053 159.132 20.592C159.634 20.488 160.215 20.0633 160.874 19.318Q161.862 18.174 163.266 15.808C163.439 15.496 163.63 15.1493 163.838 14.768C164.063 14.3867 164.288 13.988 164.514 13.572C164.739 13.156 164.956 12.74 165.164 12.324C165.389 11.8907 165.597 11.4747 165.788 11.076ZM49.3661 14.3C49.0714 14.6987 48.7941 15.132 48.5341 15.6C48.2741 16.068 48.0488 16.5447 47.8581 17.03C47.6674 17.498 47.5201 17.9573 47.4161 18.408C47.3121 18.8413 47.2601 19.2313 47.2601 19.578C47.2601 19.994 47.3294 20.3927 47.4681 20.774C47.6068 21.1553 47.7628 21.372 47.9361 21.424C48.7161 21.2507 49.4268 20.93 50.0681 20.462C50.7267 19.9767 51.2901 19.3787 51.7581 18.668C52.2434 17.9573 52.6161 17.1513 52.8761 16.25C53.1534 15.3487 53.2921 14.3867 53.2921 13.364C53.2921 12.9133 53.2661 12.558 53.2141 12.298C53.162 12.038 53.0754 11.8127 52.9541 11.622C52.1914 11.8473 51.5068 12.2113 50.9001 12.714C50.3107 13.2167 49.7994 13.7453 49.3661 14.3ZM112.36 14.3C112.066 14.6987 111.788 15.132 111.528 15.6Q111.138 16.302 110.852 17.03C110.662 17.498 110.514 17.9573 110.41 18.408C110.306 18.8413 110.254 19.2313 110.254 19.578C110.254 19.994 110.324 20.3927 110.462 20.774C110.601 21.1553 110.757 21.372 110.93 21.424C111.71 21.2507 112.421 20.93 113.062 20.462C113.721 19.9767 114.284 19.3787 114.752 18.668C115.238 17.9573 115.61 17.1513 115.87 16.25C116.148 15.3487 116.286 14.3867 116.286 13.364C116.286 12.9133 116.26 12.558 116.208 12.298C116.156 12.038 116.07 11.8127 115.948 11.622C115.186 11.8473 114.501 12.2113 113.894 12.714C113.305 13.2167 112.794 13.7453 112.36 14.3ZM22.906 11.674C22.438 11.7433 21.9526 11.934 21.45 12.246C20.9473 12.558 20.4706 12.974 20.02 13.494C19.5867 14.014 19.188 14.6207 18.824 15.314C18.46 16.0073 18.174 16.7527 17.966 17.55Q20.046 16.51 21.424 15.002Q22.5298 13.771 22.8152 12.3726Q22.8854 12.0284 22.906 11.674ZM36.3738 23.088C36.7898 22.9147 37.1798 22.6633 37.5438 22.334C37.9251 22.0047 38.2545 21.632 38.5318 21.216C38.8091 20.8 39.0258 20.358 39.1818 19.89C39.3551 19.422 39.4418 18.9627 39.4418 18.512C39.0952 18.564 38.7138 18.7287 38.2978 19.006Q37.6738 19.396 37.1278 19.968C36.7638 20.332 36.4604 20.7133 36.2178 21.112C35.9752 21.5107 35.8538 21.8573 35.8538 22.152C35.8538 22.5333 36.0271 22.8453 36.3738 23.088Z" fill="#FFFFFF" fill-opacity="1.000000" fill-rule="evenodd"/>
</svg>
